<?xml version="1.0" standalone="no"?>
<!DOCTYPE svg PUBLIC "-//W3C//DTD SVG 20010904//EN"
 "http://www.w3.org/TR/2001/REC-SVG-20010904/DTD/svg10.dtd">
<svg version="1.0" xmlns="http://www.w3.org/2000/svg"
 width="260.000000pt" height="260.000000pt" viewBox="0 0 260.000000 260.000000"
 preserveAspectRatio="xMidYMid meet">
<metadata>
Created by potrace 1.11, written by Peter Selinger 2001-2013
</metadata>
<g transform="translate(0.000000,260.000000) scale(0.100000,-0.100000)"
fill="#000000" stroke="none">
<path d="M1034 2558 c-4 -6 -3 -8 4 -4 6 3 13 2 17 -4 5 -9 -45 -16 -82 -11
-8 1 -10 -5 -7 -14 3 -8 1 -15 -5 -15 -6 0 -11 5 -11 10 0 6 -4 10 -10 10 -6
0 -9 -5 -7 -12 1 -7 -11 -12 -32 -11 -33 0 -34 0 -15 -15 16 -12 16 -14 2 -9
-11 4 -18 1 -18 -6 0 -7 -3 -8 -8 -2 -4 6 -24 7 -47 4 -30 -5 -33 -7 -12 -8
15 0 27 -5 27 -10 0 -5 -6 -9 -12 -8 -44 1 -78 -4 -74 -12 7 -11 -42 -29 -69
-25 l-20 3 20 -16 c17 -13 17 -15 2 -10 -11 4 -20 1 -24 -9 -5 -13 -7 -13 -14
-2 -7 10 -9 10 -9 -2 0 -9 -8 -16 -17 -17 -48 -2 -71 -8 -67 -15 3 -5 10 -6
15 -3 5 4 9 1 9 -4 0 -6 -11 -11 -25 -11 -14 0 -29 -8 -35 -20 -6 -11 -16 -17
-25 -14 -11 5 -13 2 -9 -10 5 -13 0 -16 -25 -16 -17 0 -31 -4 -31 -10 0 -5 8
-7 18 -3 13 4 14 3 6 -6 -6 -7 -21 -13 -33 -14 -15 -1 -21 -8 -22 -27 0 -14
-3 -19 -6 -12 -2 6 -9 12 -15 12 -6 0 -8 -7 -4 -15 4 -10 -1 -15 -14 -15 -15
0 -20 -7 -20 -24 0 -14 -5 -28 -12 -32 -6 -4 -8 -3 -4 4 3 6 2 14 -4 17 -6 4
-10 3 -9 -2 5 -27 -3 -53 -16 -53 -13 0 -21 -25 -16 -52 0 -5 -4 -8 -10 -8 -6
0 -9 7 -5 15 3 8 1 15 -4 15 -9 0 -12 -15 -13 -67 0 -12 -4 -20 -9 -17 -4 3
-6 10 -3 15 4 5 1 9 -4 9 -6 0 -11 -9 -11 -19 0 -11 -5 -23 -12 -27 -7 -4 -8
-3 -4 4 9 14 -4 15 -24 2 -10 -6 -11 -10 -2 -10 6 0 12 -4 12 -10 0 -5 -7 -7
-15 -4 -10 4 -15 0 -15 -15 0 -12 -6 -20 -12 -18 -7 1 -12 -6 -10 -15 2 -10
-2 -18 -7 -18 -5 0 -8 -11 -5 -25 3 -18 0 -25 -11 -25 -13 0 -21 -25 -16 -52
0 -5 -6 -8 -14 -8 -9 0 -15 -6 -14 -12 1 -7 1 -24 0 -38 -1 -18 -4 -21 -10
-11 -7 10 -10 10 -16 1 -4 -7 -2 -16 5 -20 9 -6 9 -9 1 -11 -9 -3 -12 -68 -12
-239 1 -129 1 -263 1 -298 0 -50 3 -62 16 -62 13 0 15 -8 12 -39 -3 -32 1 -42
17 -51 14 -7 15 -9 3 -6 -13 4 -18 0 -18 -17 0 -16 3 -18 9 -8 12 18 20 2 22
-47 2 -22 7 -38 12 -35 4 3 6 12 3 20 -3 8 -1 11 4 8 6 -4 10 -12 9 -18 -4
-31 2 -57 12 -55 6 2 13 -8 15 -21 3 -13 11 -29 19 -35 9 -6 16 -28 17 -48 1
-33 3 -36 15 -20 7 9 13 13 12 7 -4 -31 3 -55 16 -55 8 0 16 -7 16 -15 3 -28
4 -33 11 -41 4 -3 6 3 3 15 -5 29 3 26 15 -5 6 -14 14 -23 18 -20 4 2 9 -7 10
-22 2 -29 22 -56 23 -31 0 7 4 3 10 -9 5 -13 6 -29 2 -35 -4 -7 0 -7 9 1 11 9
18 10 23 2 3 -5 0 -10 -7 -10 -10 0 -9 -3 2 -9 8 -6 18 -7 22 -5 7 5 9 -2 12
-46 1 -9 13 -16 29 -18 15 -2 27 -8 27 -13 0 -5 7 -9 15 -9 8 0 15 -7 15 -15
0 -8 7 -15 15 -15 8 0 15 -7 15 -15 0 -14 17 -20 50 -15 11 1 9 -3 -5 -14 -14
-12 -16 -16 -5 -15 36 3 49 -1 44 -16 -4 -10 0 -15 15 -15 12 0 21 -6 21 -14
0 -8 5 -18 12 -22 8 -5 9 -1 4 12 -5 14 0 12 19 -8 14 -16 32 -28 40 -28 8 0
14 -5 13 -11 -2 -6 3 -14 11 -17 8 -2 11 0 7 6 -3 6 -1 14 5 18 8 5 9 3 5 -5
-5 -8 0 -14 13 -18 12 -3 21 -12 21 -19 0 -12 49 -21 83 -15 5 1 6 -3 2 -9 -3
-6 -11 -8 -16 -5 -5 4 -9 1 -9 -4 0 -6 12 -11 26 -11 15 0 32 -7 38 -15 6 -8
31 -16 58 -17 25 -2 44 -7 41 -11 -3 -5 -11 -6 -19 -3 -7 3 -16 1 -18 -3 -3
-5 7 -8 22 -9 68 0 83 -3 77 -12 -3 -6 -2 -10 4 -10 5 0 12 6 14 13 3 7 6 4 6
-6 1 -15 8 -18 36 -15 20 1 39 -2 43 -8 8 -13 222 -16 222 -4 0 4 -25 7 -55 6
-30 0 -55 2 -55 5 0 8 -33 5 -49 -5 -10 -7 -11 -4 -2 13 14 26 -3 29 -19 4
-11 -17 -11 -17 -6 -1 4 14 0 18 -19 18 -18 0 -23 4 -19 15 4 8 1 15 -5 15 -6
0 -11 -8 -12 -17 0 -13 -2 -14 -6 -4 -8 19 -41 51 -53 51 -5 0 -10 6 -10 14 0
10 -12 15 -37 15 -48 0 -70 5 -80 16 -4 4 -3 5 4 1 6 -3 14 -3 17 2 2 4 -5 9
-17 10 -50 5 -62 10 -62 23 0 8 -8 13 -20 11 -20 -3 -20 -3 -1 11 15 11 16 16
6 22 -9 5 -11 4 -6 -3 4 -7 2 -12 -3 -12 -10 0 -15 14 -12 33 1 4 -4 7 -11 6
-31 -4 -48 2 -48 16 0 8 -9 15 -20 15 -11 0 -20 5 -20 11 0 5 5 7 12 3 6 -4 8
-3 5 3 -4 6 -17 11 -29 11 -50 2 -63 9 -66 34 -2 17 -11 28 -25 32 -11 3 -19
8 -16 11 6 6 338 9 344 3 2 -2 5 -25 6 -51 3 -43 5 -47 28 -45 73 3 80 0 74
-33 -3 -23 -1 -29 8 -24 8 6 10 4 3 -6 -4 -8 -9 -19 -10 -25 -2 -14 44 -15 70
-2 12 7 16 7 12 0 -3 -6 -1 -12 6 -14 6 -2 11 -20 11 -40 0 -30 4 -36 19 -33
10 2 16 0 13 -6 -4 -5 -10 -7 -15 -4 -5 3 -11 1 -15 -5 -4 -6 11 -10 39 -10
32 0 48 5 56 18 10 14 11 14 6 1 -4 -14 3 -17 44 -16 l49 0 -2 49 c-2 52 -2
52 60 48 l43 -2 -2 41 c-1 30 -4 38 -13 31 -8 -7 -12 -5 -12 5 0 8 3 13 5 10
3 -3 11 0 18 5 6 6 33 11 58 12 25 0 46 5 46 10 0 5 -6 6 -12 2 -10 -6 -10 -4
-3 7 6 8 12 28 14 44 2 17 4 31 5 32 2 2 136 3 298 3 l296 1 1 296 c1 163 4
299 6 303 2 4 25 5 50 3 30 -3 45 -1 45 7 0 6 -5 8 -12 4 -10 -6 -10 -5 -1 7
6 8 13 30 15 49 3 30 7 35 28 35 26 0 35 23 15 38 -6 5 -4 7 5 4 8 -2 14 -14
14 -26 -1 -15 3 -21 15 -19 23 5 21 50 -2 54 -11 1 -22 5 -25 9 -4 3 6 4 21 1
22 -4 27 -1 27 15 0 10 5 19 11 19 5 0 7 6 3 13 -5 8 -2 8 9 -2 14 -11 20 -11
34 0 11 10 14 10 9 2 -5 -9 0 -13 15 -13 19 0 20 2 8 17 -10 11 -10 14 -1 9 9
-5 12 6 12 44 0 38 -3 49 -12 44 -7 -4 -6 1 3 10 9 10 14 28 11 46 -4 26 -8
29 -33 26 -24 -3 -27 -1 -18 10 6 8 8 14 4 14 -4 0 -2 7 5 15 9 10 9 15 1 15
-10 0 -15 -13 -12 -32 0 -5 -3 -8 -8 -8 -18 0 -7 40 14 47 11 4 22 6 25 6 6
-2 7 9 12 61 1 14 6 22 10 20 5 -3 6 -9 3 -14 -3 -5 -1 -11 3 -14 5 -3 9 5 9
17 -1 53 3 68 16 62 6 -4 3 0 -7 9 -10 8 -23 13 -28 10 -5 -4 -8 9 -6 27 2 22
8 33 16 31 8 -1 11 2 7 8 -3 6 -11 8 -16 5 -5 -4 -9 16 -9 45 0 28 -4 49 -9
46 -5 -3 -7 -16 -4 -29 3 -12 3 -20 0 -17 -12 11 -16 60 -4 57 8 -1 12 15 13
45 1 26 -1 47 -5 46 -21 -2 -30 4 -25 20 5 14 3 14 -12 -3 -13 -16 -15 -16
-11 -3 4 11 0 18 -11 20 -9 2 -17 14 -17 29 -2 23 2 26 42 28 37 2 43 -1 43
-18 0 -14 5 -19 15 -15 8 4 13 10 10 14 -3 5 -2 11 3 14 9 5 12 -9 13 -51 1
-13 4 -23 8 -23 9 0 8 126 -1 136 -4 3 -5 -3 -3 -15 2 -12 0 -19 -5 -16 -4 3
-7 16 -5 30 1 14 -2 25 -7 25 -6 0 -8 7 -5 15 4 8 1 17 -5 21 -6 4 -8 3 -4 -4
3 -6 2 -13 -4 -17 -5 -3 -10 -1 -10 6 0 6 -8 18 -17 25 -17 13 -17 14 2 8 19
-5 19 -5 3 9 -10 8 -18 20 -18 27 0 10 -3 10 -16 0 -8 -8 -14 -9 -13 -4 4 21
-2 54 -8 53 -20 -3 -34 2 -28 11 3 6 -4 10 -16 10 -17 0 -19 3 -10 14 8 10 9
16 1 21 -5 3 -10 0 -11 -7 0 -7 -5 -3 -11 10 -6 12 -17 22 -25 22 -7 0 -13 6
-13 13 0 7 -10 13 -21 14 -12 1 -27 7 -33 14 -8 9 -8 10 1 5 6 -3 15 -2 18 4
4 6 3 10 -2 9 -28 -5 -63 2 -58 12 4 6 -2 13 -14 16 -12 3 -18 10 -14 17 4 6
0 5 -9 -2 -13 -10 -18 -10 -24 -1 -4 8 -3 9 4 5 7 -4 12 -3 12 3 0 5 -10 11
-22 13 -13 2 -22 9 -20 16 1 8 -2 11 -8 7 -6 -3 -8 -10 -5 -15 3 -5 -12 -8
-34 -7 -21 1 -37 6 -34 10 3 5 11 6 17 4 7 -3 18 -2 25 2 7 5 -1 9 -21 10 -53
3 -57 4 -56 10 2 23 -6 28 -43 26 -33 -2 -39 0 -35 14 4 11 2 10 -9 -3 -14
-18 -20 -15 -16 7 1 5 -3 6 -9 2 -6 -3 -8 -10 -5 -16 3 -5 -11 -8 -33 -6 -29
1 -38 6 -34 16 3 9 1 12 -5 8 -6 -4 -18 0 -26 8 -12 11 -17 12 -20 2 -3 -7 -6
-5 -6 5 -1 14 -10 18 -38 18 -74 0 -102 4 -97 11 2 5 11 6 18 3 8 -3 16 -2 19
3 7 12 -62 15 -196 10 -26 -1 -47 1 -47 4 0 3 -13 4 -30 1 -16 -2 -27 -8 -24
-13 3 -5 10 -6 16 -3 7 4 8 2 4 -5 -6 -9 -11 -9 -21 -1 -10 8 -15 7 -19 -2 -3
-7 -4 -4 -1 8 5 19 1 20 -50 17 -30 -1 -57 1 -59 6 -3 4 10 7 29 5 19 -1 35 1
35 6 0 12 -268 11 -276 -2z m726 -64 c0 -8 -19 -13 -24 -6 -3 5 1 9 9 9 8 0
15 -2 15 -3z m-212 -146 c-2 -9 15 -14 55 -16 36 -1 64 -8 74 -17 19 -20 30
-19 43 3 10 15 10 15 6 -3 -5 -18 -2 -20 39 -17 38 3 44 2 39 -12 -6 -16 -2
-18 58 -18 15 -1 27 -3 26 -7 -2 -17 3 -31 10 -28 4 1 7 -2 8 -8 0 -5 13 -13
30 -16 16 -4 -54 -7 -156 -8 l-186 -1 3 42 c1 22 4 47 7 54 3 7 0 16 -6 20 -7
4 -8 3 -4 -4 14 -23 -82 -18 -104 4 -8 8 -10 14 -5 13 22 -4 55 1 54 9 -2 12
1 22 6 22 3 0 4 -6 3 -12z m-364 -26 c3 -5 -1 -9 -9 -9 -8 0 -12 4 -9 9 3 4 7
8 9 8 2 0 6 -4 9 -8z m240 0 c3 -5 -1 -9 -9 -9 -8 0 -12 4 -9 9 3 4 7 8 9 8 2
0 6 -4 9 -8z m286 2 c0 -8 -19 -13 -24 -6 -3 5 1 9 9 9 8 0 15 -2 15 -3z
m-190 -38 c0 -3 -4 -8 -10 -11 -5 -3 -10 -1 -10 4 0 6 5 11 10 11 6 0 10 -2
10 -4z m45 -42 c0 -15 -7 -29 -15 -32 -10 -2 -11 -1 -4 5 6 4 10 20 9 35 -1
15 1 25 5 23 4 -2 6 -17 5 -31z m-591 11 c-4 -8 -1 -15 5 -15 6 0 11 8 11 17
0 25 8 12 13 -24 l5 -33 -101 2 c-56 1 -84 3 -62 5 22 3 48 12 58 20 9 9 17
13 17 8 0 -4 8 -1 18 6 15 13 16 12 3 -3 -7 -10 -17 -16 -21 -13 -5 3 -11 1
-15 -5 -15 -25 27 -7 47 20 24 33 30 37 22 15z m87 -22 c13 -16 12 -17 -3 -4
-10 7 -18 15 -18 17 0 8 8 3 21 -13z m463 9 c3 -5 -1 -9 -9 -9 -8 0 -12 4 -9
9 3 4 7 8 9 8 2 0 6 -4 9 -8z m693 -300 c1 -9 4 -27 5 -38 1 -13 7 -20 15 -17
9 4 13 -5 13 -26 0 -17 5 -31 11 -31 5 0 8 4 4 9 -3 5 -1 12 4 15 11 7 9 -13
-2 -31 -5 -7 -4 -13 1 -13 9 0 14 -51 15 -155 1 -57 0 -60 -24 -60 -13 0 -30
-4 -38 -9 -10 -6 -12 -6 -7 2 4 7 2 12 -4 12 -7 0 -10 57 -10 186 1 163 7 214
17 156z m-1816 -188 c-1 -106 -5 -172 -11 -178 -8 -8 -9 -6 -5 5 5 13 -1 16
-37 15 l-43 -1 -1 -43 c-1 -23 -7 -49 -14 -57 -6 -8 -8 -20 -4 -26 5 -8 3 -9
-5 -5 -7 5 -10 14 -7 21 3 10 -4 13 -24 13 -21 -1 -27 -5 -23 -17 3 -12 1 -11
-7 2 -15 24 -14 147 1 161 9 8 10 7 4 -3 -5 -9 -4 -12 3 -7 7 4 12 13 12 21 0
7 7 15 15 19 8 3 15 9 14 13 -4 25 3 43 16 43 14 0 21 28 16 75 -2 20 -2 20
14 0 11 -14 15 -16 14 -5 -3 34 2 61 10 55 5 -3 12 4 16 15 3 11 11 19 18 17
6 -1 13 9 15 21 8 56 13 3 13 -154z m1844 156 c3 -5 1 -10 -4 -10 -6 0 -11 5
-11 10 0 6 2 10 4 10 3 0 8 -4 11 -10z m-1865 -10 c0 -5 -2 -10 -4 -10 -3 0
-8 5 -11 10 -3 6 -1 10 4 10 6 0 11 -4 11 -10z m2095 -39 c3 -5 2 -12 -3 -15
-5 -3 -9 1 -9 9 0 17 3 19 12 6z m-171 -137 c3 -8 2 -12 -4 -9 -6 3 -10 10
-10 16 0 14 7 11 14 -7z m-2050 -30 c3 -8 2 -12 -4 -9 -6 3 -10 10 -10 16 0
14 7 11 14 -7z m2053 -56 c0 -37 -2 -55 -6 -43 -6 16 -8 91 -2 103 5 9 7 -6 8
-60z m-39 -83 c-3 -3 -9 2 -12 12 -6 14 -5 15 5 6 7 -7 10 -15 7 -18z m-1933
-14 c-6 -5 -25 10 -25 20 0 5 6 4 14 -3 8 -7 12 -15 11 -17z m1972 10 c0 -11
-5 -18 -9 -15 -4 3 -5 11 -1 19 7 21 12 19 10 -4z m-40 -33 c-3 -8 -6 -5 -6 6
-1 11 2 17 5 13 3 -3 4 -12 1 -19z m-1902 3 c3 -5 2 -12 -3 -15 -5 -3 -9 1 -9
9 0 17 3 19 12 6z m1882 3 c-8 -8 -48 -13 -43 -6 2 4 14 8 26 9 12 1 20 0 17
-3z m-2047 -43 c0 -6 -4 -12 -8 -15 -5 -3 -9 1 -9 9 0 8 4 15 9 15 4 0 8 -4 8
-9z m100 -37 c0 -8 -19 -13 -24 -6 -3 5 1 9 9 9 8 0 15 -2 15 -3z m954 -2 c3
-5 -1 -9 -9 -9 -8 0 -12 4 -9 9 3 4 7 8 9 8 2 0 6 -4 9 -8z m71 -1 c3 -5 2
-12 -3 -15 -5 -3 -9 1 -9 9 0 17 3 19 12 6z m-1079 -27 c1 -9 0 -13 -4 -10 -3
4 -7 14 -8 22 -1 9 0 13 4 10 3 -4 7 -14 8 -22z m-46 1 c0 -8 -4 -15 -8 -15
-5 0 -9 7 -9 15 0 8 4 15 9 15 4 0 8 -7 8 -15z m1186 -14 c7 -1 12 -26 13 -63
1 -35 3 -78 5 -97 1 -18 -3 -35 -8 -37 -6 -2 -52 -5 -103 -7 l-91 -2 -4 38
c-2 21 -2 40 1 42 6 7 7 65 0 65 -14 0 5 59 19 62 13 2 129 2 168 -1z m1040
-81 c0 -12 -4 -16 -9 -11 -5 5 -6 14 -3 20 10 15 12 14 12 -9z m59 -28 c-3 -3
-11 0 -18 7 -9 10 -8 11 6 5 10 -3 15 -9 12 -12z m-35 -52 c0 -5 -4 -10 -10
-10 -5 0 -10 5 -10 10 0 6 5 10 10 10 6 0 10 -4 10 -10z m-2255 -40 c3 -5 1
-10 -4 -10 -6 0 -11 5 -11 10 0 6 2 10 4 10 3 0 8 -4 11 -10z m5 -30 c0 -5 -5
-10 -11 -10 -5 0 -7 5 -4 10 3 6 8 10 11 10 2 0 4 -4 4 -10z m60 -15 c11 -13
10 -14 -5 -9 -14 6 -16 4 -10 -6 5 -8 4 -11 -3 -6 -6 4 -9 13 -5 21 7 19 8 19
23 0z m1085 -14 c3 -5 2 -12 -3 -15 -5 -3 -9 1 -9 9 0 17 3 19 12 6z m-1079
-27 c-5 -13 -2 -15 14 -11 21 5 25 -9 20 -75 -1 -27 0 -28 48 -28 l50 0 4 -65
c1 -35 0 -75 -4 -87 -4 -16 -6 -18 -7 -5 -1 10 -9 17 -22 17 -11 0 -17 5 -14
10 4 6 12 7 18 4 7 -4 9 -3 4 1 -13 14 -47 16 -43 2 1 -6 1 -9 -1 -4 -3 4 -10
4 -15 1 -6 -4 -9 -3 -6 2 3 5 -3 18 -14 29 -16 17 -18 17 -13 2 4 -10 2 -17
-4 -17 -6 0 -11 14 -11 30 0 18 -5 30 -13 30 -13 0 -15 9 -20 96 -1 21 -6 30
-14 27 -7 -3 -13 2 -13 12 0 9 4 14 10 10 5 -3 17 3 27 14 22 24 27 25 19 5z
m58 -40 c3 -8 2 -12 -4 -9 -6 3 -10 10 -10 16 0 14 7 11 14 -7z m47 -19 c-5
-5 -7 -18 -6 -27 2 -10 -1 -18 -7 -18 -5 0 -8 6 -5 13 2 6 1 19 -4 27 -5 11
-2 16 11 16 12 0 16 -4 11 -11z m-146 -5 c3 -5 1 -10 -4 -10 -6 0 -11 5 -11
10 0 6 2 10 4 10 3 0 8 -4 11 -10z m2049 -8 c3 -5 -1 -9 -9 -9 -8 0 -15 4 -15
9 0 4 4 8 9 8 6 0 12 -4 15 -8z m-707 -659 c-4 -3 -1 -13 5 -22 7 -9 8 -13 4
-9 -5 4 -15 0 -23 -10 -13 -16 -13 -15 -5 3 5 11 7 26 5 33 -3 6 1 12 8 12 7
0 9 -3 6 -7z m-887 -23 c0 -5 -2 -10 -4 -10 -3 0 -8 5 -11 10 -3 6 -1 10 4 10
6 0 11 -4 11 -10z m394 1 c-8 -8 -64 -10 -64 -2 0 4 16 7 35 7 19 0 32 -2 29
-5z m470 -50 c-5 -6 -34 20 -34 30 0 5 8 1 18 -8 10 -10 17 -20 16 -22z m-449
9 c-3 -5 -12 -10 -18 -10 -7 0 -6 4 3 10 19 12 23 12 15 0z m328 -35 c-3 -9
-8 -14 -10 -11 -3 3 -2 9 2 15 9 16 15 13 8 -4z m34 -21 c-3 -3 -12 -4 -19 -1
-8 3 -5 6 6 6 11 1 17 -2 13 -5z m33 -44 c0 -5 -4 -10 -10 -10 -5 0 -10 5 -10
10 0 6 5 10 10 10 6 0 10 -4 10 -10z m-200 -44 c-7 -7 -13 -7 -20 0 -6 6 -3
10 10 10 13 0 16 -4 10 -10z m17 -28 c-3 -8 -6 -5 -6 6 -1 11 2 17 5 13 3 -3
4 -12 1 -19z m76 5 c3 -5 -8 -8 -23 -8 -15 0 -26 3 -23 8 2 4 13 7 23 7 10 0
21 -3 23 -7z m-439 -52 c-9 -9 -34 -9 -34 -1 0 5 9 8 20 7 10 -1 17 -3 14 -6z"/>
<path d="M1775 2280 c3 -5 8 -10 11 -10 2 0 4 5 4 10 0 6 -5 10 -11 10 -5 0
-7 -4 -4 -10z"/>
<path d="M1860 2250 c0 -5 5 -10 11 -10 5 0 7 5 4 10 -3 6 -8 10 -11 10 -2 0
-4 -4 -4 -10z"/>
<path d="M1845 2470 c-3 -6 1 -7 9 -4 18 7 21 14 7 14 -6 0 -13 -4 -16 -10z"/>
<path d="M1988 2473 c7 -3 16 -2 19 1 4 3 -2 6 -13 5 -11 0 -14 -3 -6 -6z"/>
<path d="M80 2012 c-13 -14 -12 -15 3 -9 10 4 17 2 17 -5 0 -6 3 -9 6 -5 3 3
2 12 -3 20 -7 13 -10 13 -23 -1z"/>
<path d="M2415 1950 c-3 -5 -1 -10 4 -10 6 0 11 5 11 10 0 6 -2 10 -4 10 -3 0
-8 -4 -11 -10z"/>
<path d="M2510 1919 c0 -5 5 -7 10 -4 6 3 10 8 10 11 0 2 -4 4 -10 4 -5 0 -10
-5 -10 -11z"/>
<path d="M90 1840 c0 -5 5 -10 11 -10 5 0 7 5 4 10 -3 6 -8 10 -11 10 -2 0 -4
-4 -4 -10z"/>
<path d="M4 1813 c2 -9 8 -18 15 -19 6 -1 7 0 1 3 -5 2 -8 9 -5 13 3 5 1 11
-4 14 -5 4 -8 -2 -7 -11z"/>
<path d="M35 1050 c3 -5 8 -10 11 -10 2 0 4 5 4 10 0 6 -5 10 -11 10 -5 0 -7
-4 -4 -10z"/>
<path d="M125 811 c-3 -5 -2 -12 3 -15 5 -3 9 1 9 9 0 17 -3 19 -12 6z"/>
<path d="M150 750 c0 -5 5 -10 10 -10 6 0 10 5 10 10 0 6 -4 10 -10 10 -5 0
-10 -4 -10 -10z"/>
<path d="M270 570 c0 -5 5 -10 11 -10 5 0 7 5 4 10 -3 6 -8 10 -11 10 -2 0 -4
-4 -4 -10z"/>
</g>
</svg>
